<?xml version="1.0" encoding="UTF-8" standalone="no"?><!DOCTYPE svg PUBLIC "-//W3C//DTD SVG 1.1//EN" "http://www.w3.org/Graphics/SVG/1.1/DTD/svg11.dtd"><svg width="100%" height="100%" viewBox="0 0 482 264" version="1.1" xmlns="http://www.w3.org/2000/svg" xmlns:xlink="http://www.w3.org/1999/xlink" xml:space="preserve" xmlns:serif="http://www.serif.com/" style="fill-rule:evenodd;clip-rule:evenodd;stroke-linecap:round;stroke-linejoin:round;stroke-miterlimit:1.5;"><g transform="matrix(50,0,0,50,378.923,182.897)"></g><text x="73.771px" y="182.897px" style="font-family:'Inter-Regular', 'Inter';font-size:50px;">W<tspan x="120.5px 150.48px 168.474px " y="182.897px 182.897px 182.897px ">ord</tspan>s  W<tspan x="300.334px 330.314px 348.308px " y="182.897px 182.897px 182.897px ">ord</tspan></text><g transform="matrix(0.87,0,0,1,7.73621,0)"><g transform="matrix(91.6667,0,0,91.6667,247.887,117.543)"><path d="M0.225,-0.002c-0.009,-0.003 -0.017,-0.006 -0.023,-0.01c-0.006,-0.003 -0.014,-0.009 -0.024,-0.018c-0.008,-0.011 -0.014,-0.021 -0.019,-0.03c-0.004,-0.009 -0.007,-0.02 -0.008,-0.033c-0.001,-0.012 -0.002,-0.028 -0.002,-0.047c-0,-0.008 0.001,-0.02 0.004,-0.036c0.003,-0.016 0.007,-0.033 0.011,-0.05c0.005,-0.018 0.009,-0.034 0.012,-0.048c0.004,-0.014 0.006,-0.023 0.007,-0.027c0.002,-0.009 -0.001,-0.014 -0.01,-0.015c-0.009,-0.001 -0.018,-0.002 -0.029,-0.001c-0.01,-0 -0.017,-0.001 -0.02,-0.003c-0.003,-0.001 -0.004,-0.002 -0.004,-0.003l-0,-0.003c-0,-0.003 -0,-0.004 -0.001,-0.005c0,-0.001 -0.001,-0.004 -0.003,-0.007c-0.001,-0.003 -0.001,-0.006 0.002,-0.011c0.003,-0.005 0.009,-0.009 0.016,-0.01c0.006,-0.001 0.014,-0.002 0.024,-0.003c0.011,-0.001 0.021,-0.004 0.032,-0.007c0.011,-0.004 0.019,-0.01 0.026,-0.018c0.006,-0.015 0.013,-0.031 0.021,-0.049c0.008,-0.018 0.016,-0.034 0.023,-0.048c0.008,-0.015 0.013,-0.024 0.016,-0.027c0.011,-0.006 0.02,-0.008 0.025,-0.007c0.005,0.001 0.011,0.006 0.018,0.017c0.003,0.005 0.006,0.008 0.007,0.011c0.002,0.003 0.002,0.007 0.001,0.012c-0.001,0.005 -0.005,0.014 -0.011,0.025c-0.005,0.011 -0.014,0.028 -0.025,0.049c-0.003,0.007 -0.006,0.013 -0.009,0.018c-0.003,0.005 -0.004,0.007 -0.004,0.007c0.003,0.001 0.007,0.001 0.012,0.001c0.005,0 0.012,-0 0.02,-0.001c0.007,-0.001 0.017,-0.002 0.028,-0.003c0.011,-0.001 0.02,-0.001 0.027,0c0.015,0 0.027,0.003 0.034,0.009c0.007,0.005 0.011,0.015 0.012,0.028c0.001,0.007 -0,0.012 -0.005,0.013c-0.004,0.001 -0.015,0.002 -0.033,0.002c-0.006,0 -0.015,0 -0.028,0.001c-0.013,0.001 -0.026,0.001 -0.04,0.002c-0.013,0.001 -0.025,0.002 -0.035,0.003c-0.009,0.001 -0.014,0.002 -0.014,0.003c-0.002,0.001 -0.005,0.008 -0.01,0.019c-0.004,0.011 -0.008,0.024 -0.013,0.038c-0.004,0.015 -0.008,0.028 -0.011,0.039c-0.005,0.023 -0.008,0.045 -0.011,0.068c-0.002,0.023 -0.002,0.042 -0.001,0.059c0.001,0.017 0.005,0.028 0.011,0.035c0.006,0.006 0.018,0.007 0.035,0.003c0.017,-0.003 0.031,-0.009 0.042,-0.018c0.012,-0.01 0.022,-0.015 0.029,-0.015c0.008,-0 0.012,0.003 0.013,0.01c0.001,0.007 -0.002,0.017 -0.011,0.03c-0.008,0.012 -0.018,0.023 -0.03,0.032c-0.012,0.009 -0.025,0.015 -0.038,0.019c-0.013,0.003 -0.025,0.003 -0.036,0Z" style="fill:#9b2335;fill-rule:nonzero;"/></g><g transform="matrix(91.6667,0,0,91.6667,247.887,117.543)"></g><g transform="matrix(91.6667,0,0,91.6667,278.228,117.543)"><path d="M0.448,-0.022c-0.013,0.003 -0.022,0.004 -0.028,0.003c-0.006,-0.001 -0.014,-0.006 -0.024,-0.016c-0.006,-0.009 -0.011,-0.018 -0.016,-0.025c-0.005,-0.007 -0.008,-0.02 -0.009,-0.039c-0.001,-0.013 0,-0.027 0.003,-0.042c0.002,-0.014 0.003,-0.025 0.002,-0.032c0.005,-0.025 0.008,-0.044 0.007,-0.059c-0.001,-0.016 -0.004,-0.023 -0.007,-0.023c-0.007,-0.001 -0.02,0.006 -0.039,0.021c-0.019,0.016 -0.041,0.037 -0.065,0.062c-0.025,0.025 -0.049,0.051 -0.073,0.078c-0.013,0.017 -0.022,0.03 -0.027,0.039c-0.005,0.008 -0.009,0.012 -0.012,0.012c-0.005,0 -0.011,-0.002 -0.019,-0.005c-0.008,-0.003 -0.015,-0.007 -0.021,-0.012c-0.006,-0.005 -0.009,-0.01 -0.01,-0.014c0,-0.003 0.002,-0.01 0.005,-0.021c0.003,-0.012 0.008,-0.026 0.013,-0.041c0.005,-0.015 0.009,-0.03 0.013,-0.043c0.004,-0.013 0.007,-0.023 0.009,-0.028c0.006,-0.017 0.013,-0.039 0.022,-0.064c0.008,-0.025 0.015,-0.047 0.022,-0.066c0.003,-0.009 0.007,-0.021 0.014,-0.037c0.007,-0.017 0.013,-0.033 0.02,-0.05c0.007,-0.017 0.011,-0.029 0.014,-0.037c0.002,-0.005 0.022,-0.057 0.029,-0.074c0.006,-0.017 0.012,-0.032 0.017,-0.047c0.006,-0.014 0.01,-0.024 0.012,-0.031c-0.001,-0.006 -0,-0.011 0.001,-0.017c0.002,-0.005 0.004,-0.008 0.006,-0.011c0.003,0 0.006,-0 0.009,-0c0.003,-0.001 0.005,-0.001 0.005,-0.001c-0,-0.001 0.003,0 0.008,0.004c0.005,0.004 0.01,0.009 0.015,0.014c0.005,0.006 0.008,0.011 0.008,0.015c0.003,0.009 0.004,0.02 0.001,0.033c-0.003,0.014 -0.01,0.035 -0.021,0.062c-0.007,0.011 -0.015,0.027 -0.022,0.048c-0.007,0.021 -0.013,0.039 -0.02,0.054c-0.003,0.005 -0.008,0.015 -0.015,0.03c-0.007,0.015 -0.015,0.033 -0.024,0.054c-0.008,0.021 -0.017,0.042 -0.025,0.063c-0.008,0.02 -0.014,0.039 -0.019,0.056c-0.007,0.016 -0.009,0.027 -0.007,0.032c0.002,0.005 0.01,-0.001 0.024,-0.018c0.019,-0.02 0.038,-0.04 0.059,-0.061c0.021,-0.021 0.04,-0.038 0.058,-0.052c0.019,-0.015 0.034,-0.021 0.045,-0.02c0.006,0.001 0.013,0.005 0.02,0.012c0.007,0.007 0.013,0.014 0.02,0.023c0.007,0.009 0.011,0.017 0.014,0.025c0.003,0.01 0.004,0.019 0.005,0.026c0.002,0.007 0.002,0.018 0.001,0.032c-0.001,0.015 -0.002,0.037 -0.005,0.068c-0.004,0.023 -0.007,0.039 -0.008,0.048c-0.001,0.01 -0.001,0.017 0.001,0.021c0.003,0.004 0.007,0.008 0.012,0.013c0.01,0.008 0.015,0.015 0.015,0.021c0.001,0.006 -0.004,0.012 -0.013,0.017Z" style="fill:#9b2335;fill-rule:nonzero;"/></g><g transform="matrix(91.6667,0,0,91.6667,278.228,117.543)"></g><g transform="matrix(91.6667,0,0,91.6667,319.845,117.543)"><path d="M0.196,0.003c-0.029,0 -0.053,-0.011 -0.072,-0.034c-0.019,-0.022 -0.028,-0.05 -0.027,-0.083c0.001,-0.024 0.006,-0.05 0.014,-0.078c0.009,-0.027 0.02,-0.054 0.034,-0.08c0.014,-0.025 0.029,-0.048 0.046,-0.067c0.017,-0.019 0.034,-0.033 0.052,-0.041c0.007,-0.003 0.014,-0.006 0.022,-0.008c0.007,-0.002 0.015,-0.003 0.023,-0.003c0.007,0 0.015,0.001 0.023,0.004c0.008,0.002 0.015,0.004 0.02,0.007c0.011,0.005 0.02,0.01 0.026,0.017c0.006,0.007 0.011,0.017 0.016,0.031c0.002,0.013 0.003,0.022 0.003,0.027c-0,0.005 -0.002,0.013 -0.005,0.024c-0.008,0.024 -0.018,0.045 -0.031,0.062c-0.013,0.017 -0.03,0.032 -0.051,0.044c-0.005,0.003 -0.012,0.006 -0.019,0.007c-0.007,0.002 -0.014,0.003 -0.021,0.003c-0.013,-0 -0.026,-0.003 -0.039,-0.008c-0.012,-0.005 -0.022,-0.012 -0.029,-0.022l-0.007,-0.008l-0.003,0.008c-0.007,0.018 -0.012,0.035 -0.016,0.05c-0.003,0.015 -0.005,0.029 -0.005,0.042c-0,0.008 0.001,0.016 0.002,0.023c0.002,0.007 0.005,0.014 0.008,0.019c0.003,0.004 0.007,0.007 0.013,0.008c0.007,0.002 0.014,0.003 0.021,0.003c0.005,-0 0.009,-0 0.014,-0.001c0.005,0 0.01,-0.001 0.015,-0.003c0.011,-0.004 0.02,-0.008 0.027,-0.013c0.007,-0.005 0.015,-0.01 0.022,-0.015l0.004,-0.002l-0.001,-0c0.008,-0.004 0.015,-0.008 0.021,-0.012c0.007,-0.004 0.01,-0.006 0.01,-0.006c0.003,-0 0.005,-0.002 0.008,-0.005c0.005,-0.003 0.012,-0.002 0.02,0.003c0.009,0.005 0.013,0.011 0.013,0.018c-0.001,0.003 -0.004,0.008 -0.009,0.015c-0.005,0.007 -0.011,0.014 -0.018,0.02c-0.006,0.006 -0.011,0.009 -0.015,0.01c-0.001,0.001 -0.003,0.002 -0.007,0.003c-0.004,0.002 -0.007,0.004 -0.008,0.005l0.001,-0c-0.006,0.008 -0.012,0.012 -0.018,0.012l-0.008,-0c-0.003,0.005 -0.011,0.01 -0.026,0.015c-0.015,0.006 -0.029,0.009 -0.043,0.009Zm0.045,-0.22c0.012,-0 0.022,-0.004 0.031,-0.011c0.009,-0.007 0.017,-0.014 0.024,-0.023c0.013,-0.018 0.021,-0.036 0.023,-0.053c0.003,-0.017 0.001,-0.028 -0.006,-0.035c-0.004,-0.002 -0.008,-0.003 -0.011,-0.004c-0.003,0 -0.008,0.001 -0.017,0.004c-0.006,0.001 -0.014,0.006 -0.025,0.015c-0.011,0.009 -0.021,0.018 -0.032,0.029c-0.01,0.011 -0.018,0.02 -0.023,0.027l-0.013,0.021c0.005,-0.002 0.01,-0.003 0.015,-0.004c0.005,0 0.008,0.001 0.009,0.002c-0,0.006 0.001,0.011 0.003,0.016c0.003,0.005 0.006,0.009 0.009,0.012c0.004,0.003 0.008,0.004 0.013,0.004Z" style="fill:#9b2335;fill-rule:nonzero;"/></g><g transform="matrix(91.6667,0,0,91.6667,319.845,117.543)"></g><g transform="matrix(91.6667,0,0,91.6667,349.637,117.543)"></g><text x="167.312px" y="117.543px" style="font-family:'Caveat-Regular', 'Caveat';font-size:91.667px;fill:#9b2335;">in</text></g><g><path d="M183.383,120.264c17.046,7.96 49.964,47.94 50.125,48.056" style="fill:none;stroke:#9b2335;stroke-width:4.58px;"/><path d="M283.633,120.264c-17.046,7.96 -49.965,47.94 -50.125,48.056" style="fill:none;stroke:#9b2335;stroke-width:4.58px;"/></g></svg>