<?xml version="1.0" encoding="UTF-8" standalone="no"?><!DOCTYPE svg PUBLIC "-//W3C//DTD SVG 1.1//EN" "http://www.w3.org/Graphics/SVG/1.1/DTD/svg11.dtd"><svg width="100%" height="100%" viewBox="0 0 306 129" version="1.1" xmlns="http://www.w3.org/2000/svg" xmlns:xlink="http://www.w3.org/1999/xlink" xml:space="preserve" xmlns:serif="http://www.serif.com/" style="fill-rule:evenodd;clip-rule:evenodd;stroke-linecap:round;stroke-linejoin:round;stroke-miterlimit:1.5;"><g><text x="1.771px" y="126.897px" style="font-family:'Inter-Regular', 'Inter';font-size:50px;">W</text><text x="48.5px" y="126.897px" style="font-family:'Inter-Regular', 'Inter';font-size:50px;">or<tspan x="96.474px " y="126.897px ">d</tspan>s  W</text><text x="228.334px" y="126.897px" style="font-family:'Inter-Regular', 'Inter';font-size:50px;">or<tspan x="276.308px " y="126.897px ">d</tspan></text></g><g><g><path d="M169.342,61.36c-0.718,-0.275 -1.356,-0.55 -1.835,-0.917c-0.478,-0.275 -1.116,-0.825 -1.914,-1.65c-0.638,-1.008 -1.116,-1.925 -1.515,-2.75c-0.319,-0.825 -0.558,-1.833 -0.638,-3.025c-0.08,-1.1 -0.159,-2.567 -0.159,-4.308c-0,-0.734 0.079,-1.834 0.319,-3.3c0.239,-1.467 0.558,-3.025 0.877,-4.584c0.399,-1.65 0.718,-3.116 0.957,-4.4c0.319,-1.283 0.478,-2.108 0.558,-2.475c0.16,-0.825 -0.08,-1.283 -0.797,-1.375c-0.718,-0.091 -1.436,-0.183 -2.313,-0.091c-0.798,-0 -1.356,-0.092 -1.595,-0.275c-0.239,-0.092 -0.319,-0.184 -0.319,-0.275l-0,-0.275c-0,-0.275 -0,-0.367 -0.08,-0.459c0,-0.091 -0.08,-0.366 -0.239,-0.641c-0.08,-0.275 -0.08,-0.55 0.159,-1.009c0.24,-0.458 0.718,-0.825 1.276,-0.916c0.479,-0.092 1.117,-0.184 1.914,-0.275c0.878,-0.092 1.675,-0.367 2.552,-0.642c0.878,-0.367 1.516,-0.917 2.074,-1.65c0.478,-1.375 1.037,-2.842 1.675,-4.492c0.638,-1.65 1.276,-3.116 1.834,-4.4c0.638,-1.375 1.037,-2.2 1.276,-2.475c0.877,-0.55 1.595,-0.733 1.994,-0.641c0.398,0.091 0.877,0.55 1.435,1.558c0.239,0.458 0.479,0.733 0.558,1.008c0.16,0.275 0.16,0.642 0.08,1.1c-0.08,0.459 -0.399,1.284 -0.877,2.292c-0.399,1.008 -1.117,2.567 -1.994,4.492c-0.239,0.641 -0.478,1.191 -0.718,1.65c-0.239,0.458 -0.319,0.641 -0.319,0.641c0.24,0.092 0.559,0.092 0.957,0.092c0.399,-0 0.957,-0 1.595,-0.092c0.559,-0.091 1.356,-0.183 2.233,-0.275c0.878,-0.091 1.595,-0.091 2.154,0c1.196,0 2.153,0.275 2.711,0.825c0.558,0.459 0.877,1.375 0.957,2.567c0.08,0.642 0,1.1 -0.399,1.192c-0.319,0.091 -1.196,0.183 -2.631,0.183c-0.479,-0 -1.197,-0 -2.233,0.092c-1.037,0.091 -2.074,0.091 -3.19,0.183c-1.037,0.092 -1.994,0.183 -2.792,0.275c-0.717,0.092 -1.116,0.183 -1.116,0.275c-0.16,0.092 -0.399,0.733 -0.798,1.742c-0.319,1.008 -0.638,2.2 -1.036,3.483c-0.319,1.375 -0.638,2.567 -0.878,3.575c-0.398,2.108 -0.638,4.125 -0.877,6.233c-0.159,2.109 -0.159,3.85 -0.08,5.409c0.08,1.558 0.399,2.566 0.878,3.208c0.478,0.55 1.435,0.642 2.791,0.275c1.356,-0.275 2.472,-0.825 3.349,-1.65c0.957,-0.917 1.755,-1.375 2.313,-1.375c0.638,-0 0.957,0.275 1.037,0.917c0.08,0.641 -0.16,1.558 -0.877,2.75c-0.638,1.1 -1.436,2.108 -2.393,2.933c-0.957,0.825 -1.994,1.375 -3.03,1.742c-1.037,0.275 -1.994,0.275 -2.871,-0Z" style="fill:#9b2335;fill-rule:nonzero;"/></g><g><path d="M213.523,59.526c-1.037,0.275 -1.755,0.367 -2.233,0.275c-0.479,-0.091 -1.117,-0.55 -1.914,-1.466c-0.479,-0.825 -0.878,-1.65 -1.276,-2.292c-0.399,-0.642 -0.638,-1.833 -0.718,-3.575c-0.08,-1.192 -0,-2.475 0.239,-3.85c0.16,-1.283 0.239,-2.292 0.16,-2.933c0.398,-2.292 0.638,-4.034 0.558,-5.409c-0.08,-1.466 -0.319,-2.108 -0.558,-2.108c-0.559,-0.092 -1.595,0.55 -3.111,1.925c-1.515,1.467 -3.269,3.392 -5.183,5.683c-1.994,2.292 -3.908,4.675 -5.822,7.15c-1.037,1.559 -1.755,2.75 -2.153,3.575c-0.399,0.734 -0.718,1.1 -0.957,1.1c-0.399,0 -0.878,-0.183 -1.516,-0.458c-0.638,-0.275 -1.196,-0.642 -1.674,-1.1c-0.479,-0.458 -0.718,-0.917 -0.798,-1.283c0,-0.275 0.16,-0.917 0.399,-1.925c0.239,-1.1 0.638,-2.384 1.037,-3.759c0.398,-1.375 0.717,-2.75 1.036,-3.941c0.319,-1.192 0.559,-2.109 0.718,-2.567c0.479,-1.558 1.037,-3.575 1.755,-5.867c0.638,-2.291 1.196,-4.308 1.754,-6.05c0.239,-0.825 0.558,-1.925 1.117,-3.391c0.558,-1.559 1.036,-3.025 1.595,-4.584c0.558,-1.558 0.877,-2.658 1.116,-3.391c0.16,-0.459 1.755,-5.225 2.313,-6.784c0.478,-1.558 0.957,-2.933 1.356,-4.308c0.478,-1.283 0.797,-2.2 0.957,-2.842c-0.08,-0.55 -0,-1.008 0.079,-1.558c0.16,-0.458 0.319,-0.733 0.479,-1.008l0.718,-0c0.239,-0.092 0.398,-0.092 0.398,-0.092c0,-0.092 0.24,-0 0.638,0.367c0.399,0.366 0.798,0.825 1.197,1.283c0.398,0.55 0.638,1.008 0.638,1.375c0.239,0.825 0.319,1.833 0.079,3.025c-0.239,1.283 -0.797,3.208 -1.674,5.683c-0.559,1.009 -1.197,2.475 -1.755,4.4c-0.558,1.925 -1.037,3.575 -1.595,4.95c-0.239,0.459 -0.638,1.375 -1.196,2.75c-0.558,1.375 -1.196,3.025 -1.914,4.95c-0.638,1.925 -1.356,3.85 -1.994,5.775c-0.638,1.834 -1.116,3.575 -1.515,5.134c-0.558,1.466 -0.718,2.475 -0.558,2.933c0.159,0.458 0.797,-0.092 1.914,-1.65c1.515,-1.833 3.03,-3.667 4.705,-5.592c1.675,-1.925 3.19,-3.483 4.625,-4.766c1.516,-1.375 2.712,-1.925 3.589,-1.834c0.479,0.092 1.037,0.459 1.595,1.1c0.558,0.642 1.037,1.284 1.595,2.109c0.558,0.825 0.877,1.558 1.117,2.291c0.239,0.917 0.319,1.742 0.398,2.384c0.16,0.641 0.16,1.65 0.08,2.933c-0.08,1.375 -0.159,3.392 -0.399,6.233c-0.319,2.109 -0.558,3.575 -0.638,4.4c-0.079,0.917 -0.079,1.559 0.08,1.925c0.239,0.367 0.558,0.734 0.957,1.192c0.798,0.733 1.196,1.375 1.196,1.925c0.08,0.55 -0.319,1.1 -1.036,1.558Z" style="fill:#9b2335;fill-rule:nonzero;"/></g><g><path d="M229.632,61.818c-2.312,0 -4.226,-1.008 -5.742,-3.117c-1.515,-2.016 -2.233,-4.583 -2.153,-7.608c0.08,-2.2 0.479,-4.583 1.117,-7.15c0.717,-2.475 1.595,-4.95 2.711,-7.333c1.117,-2.292 2.313,-4.4 3.669,-6.142c1.355,-1.742 2.711,-3.025 4.147,-3.758c0.558,-0.275 1.116,-0.55 1.754,-0.734c0.558,-0.183 1.196,-0.275 1.834,-0.275c0.559,0 1.197,0.092 1.835,0.367c0.638,0.183 1.196,0.367 1.595,0.642c0.877,0.458 1.595,0.916 2.073,1.558c0.479,0.642 0.877,1.558 1.276,2.842c0.16,1.191 0.239,2.016 0.239,2.475c0,0.458 -0.159,1.191 -0.398,2.2c-0.638,2.2 -1.436,4.125 -2.473,5.683c-1.036,1.558 -2.392,2.933 -4.067,4.033c-0.399,0.275 -0.957,0.55 -1.515,0.642c-0.558,0.183 -1.117,0.275 -1.675,0.275c-1.037,-0 -2.073,-0.275 -3.11,-0.733c-0.957,-0.459 -1.755,-1.1 -2.313,-2.017l-0.558,-0.733l-0.239,0.733c-0.559,1.65 -0.957,3.208 -1.276,4.583c-0.24,1.375 -0.399,2.659 -0.399,3.85c-0,0.734 0.08,1.467 0.159,2.109c0.16,0.641 0.399,1.283 0.638,1.741c0.24,0.367 0.559,0.642 1.037,0.734c0.558,0.183 1.117,0.275 1.675,0.275c0.399,-0 0.718,-0 1.116,-0.092c0.399,-0 0.798,-0.092 1.197,-0.275c0.877,-0.367 1.595,-0.733 2.153,-1.192c0.558,-0.458 1.196,-0.916 1.754,-1.375l0.319,-0.183l-0.079,-0c0.638,-0.367 1.196,-0.733 1.674,-1.1c0.559,-0.367 0.798,-0.55 0.798,-0.55c0.239,-0 0.399,-0.183 0.638,-0.458c0.399,-0.275 0.957,-0.184 1.595,0.275c0.718,0.458 1.037,1.008 1.037,1.65c-0.08,0.275 -0.319,0.733 -0.718,1.375c-0.399,0.641 -0.877,1.283 -1.436,1.833c-0.478,0.55 -0.877,0.825 -1.196,0.917c-0.08,0.091 -0.239,0.183 -0.558,0.275c-0.319,0.183 -0.558,0.366 -0.638,0.458l0.08,-0c-0.479,0.733 -0.957,1.1 -1.436,1.1l-0.638,-0c-0.239,0.458 -0.877,0.917 -2.073,1.375c-1.197,0.55 -2.313,0.825 -3.43,0.825Zm3.589,-20.167c0.957,0 1.755,-0.366 2.472,-1.008c0.718,-0.642 1.356,-1.283 1.914,-2.108c1.037,-1.65 1.675,-3.3 1.835,-4.859c0.239,-1.558 0.079,-2.566 -0.479,-3.208c-0.319,-0.183 -0.638,-0.275 -0.877,-0.367c-0.239,0 -0.638,0.092 -1.356,0.367c-0.478,0.092 -1.116,0.55 -1.994,1.375c-0.877,0.825 -1.674,1.65 -2.552,2.658c-0.797,1.009 -1.435,1.834 -1.834,2.475l-1.037,1.925c0.399,-0.183 0.798,-0.275 1.197,-0.366c0.398,-0 0.638,0.091 0.717,0.183c0,0.55 0.08,1.008 0.24,1.467c0.239,0.458 0.478,0.825 0.717,1.1c0.319,0.275 0.638,0.366 1.037,0.366Z" style="fill:#9b2335;fill-rule:nonzero;"/></g><g transform="matrix(0.87,0,0,1,10.5687,0)"><text x="81.298px" y="61.543px" style="font-family:'Caveat-Regular', 'Caveat';font-size:91.667px;fill:#9b2335;">in</text></g></g><g><path d="M111.383,64.264c17.046,7.96 49.964,47.94 50.125,48.056" style="fill:none;stroke:#9b2335;stroke-width:4.58px;"/><path d="M211.633,64.264c-17.046,7.96 -49.965,47.94 -50.125,48.056" style="fill:none;stroke:#9b2335;stroke-width:4.58px;"/></g></svg>